<mxfile host="Electron" agent="Mozilla/5.0 (Windows NT 10.0; Win64; x64) AppleWebKit/537.36 (KHTML, like Gecko) draw.io/24.7.17 Chrome/128.0.6613.36 Electron/32.0.1 Safari/537.36" version="24.7.17">
  <diagram name="Página-1" id="NoY2cXHq6fawZsYfdNgs">
    <mxGraphModel dx="683" dy="402" grid="1" gridSize="10" guides="1" tooltips="1" connect="1" arrows="1" fold="1" page="1" pageScale="1" pageWidth="827" pageHeight="1169" math="0" shadow="0">
      <root>
        <mxCell id="0" />
        <mxCell id="1" parent="0" />
        <mxCell id="C-hkk91nc2oqcI1oIUS8-6" value="Usuário" style="shape=umlActor;verticalLabelPosition=bottom;verticalAlign=top;html=1;outlineConnect=0;" parent="1" vertex="1">
          <mxGeometry x="210" y="91" width="30" height="60" as="geometry" />
        </mxCell>
        <mxCell id="C-hkk91nc2oqcI1oIUS8-7" value="Sistema" style="rounded=0;whiteSpace=wrap;html=1;" parent="1" vertex="1">
          <mxGeometry x="515" y="137" width="80" height="30" as="geometry" />
        </mxCell>
        <mxCell id="C-hkk91nc2oqcI1oIUS8-8" value="" style="endArrow=none;dashed=1;html=1;rounded=0;" parent="1" edge="1">
          <mxGeometry width="50" height="50" relative="1" as="geometry">
            <mxPoint x="224" y="670" as="sourcePoint" />
            <mxPoint x="224" y="171" as="targetPoint" />
          </mxGeometry>
        </mxCell>
        <mxCell id="C-hkk91nc2oqcI1oIUS8-9" value="" style="endArrow=none;dashed=1;html=1;rounded=0;" parent="1" source="C-hkk91nc2oqcI1oIUS8-29" edge="1">
          <mxGeometry width="50" height="50" relative="1" as="geometry">
            <mxPoint x="555" y="732" as="sourcePoint" />
            <mxPoint x="555" y="172" as="targetPoint" />
          </mxGeometry>
        </mxCell>
        <mxCell id="C-hkk91nc2oqcI1oIUS8-10" value="" style="endArrow=none;dashed=1;html=1;rounded=0;" parent="1" edge="1">
          <mxGeometry width="50" height="50" relative="1" as="geometry">
            <mxPoint x="555" y="739" as="sourcePoint" />
            <mxPoint x="555" y="418" as="targetPoint" />
          </mxGeometry>
        </mxCell>
        <mxCell id="C-hkk91nc2oqcI1oIUS8-11" value="&lt;font style=&quot;font-size: 14px;&quot;&gt;Diagrama de Sequência do Sistema de Editar/Deletar Produto&lt;/font&gt;" style="text;html=1;align=center;verticalAlign=middle;resizable=0;points=[];autosize=1;strokeColor=none;fillColor=none;fontStyle=1" parent="1" vertex="1">
          <mxGeometry x="199" y="31" width="410" height="30" as="geometry" />
        </mxCell>
        <mxCell id="C-hkk91nc2oqcI1oIUS8-14" value="" style="rounded=0;whiteSpace=wrap;html=1;rotation=90;" parent="1" vertex="1">
          <mxGeometry x="528.56" y="488.36" width="52.89" height="10" as="geometry" />
        </mxCell>
        <mxCell id="C-hkk91nc2oqcI1oIUS8-17" value="Alternativa" style="shape=umlFrame;whiteSpace=wrap;html=1;pointerEvents=0;width=70;height=30;" parent="1" vertex="1">
          <mxGeometry x="180" y="415" width="440" height="270" as="geometry" />
        </mxCell>
        <mxCell id="C-hkk91nc2oqcI1oIUS8-18" value="Se o usuário seleciou: Editar produto&amp;nbsp;" style="text;html=1;align=center;verticalAlign=middle;resizable=0;points=[];autosize=1;strokeColor=none;fillColor=none;" parent="1" vertex="1">
          <mxGeometry x="248" y="415" width="220" height="30" as="geometry" />
        </mxCell>
        <mxCell id="C-hkk91nc2oqcI1oIUS8-19" value="" style="endArrow=none;dashed=1;html=1;rounded=0;endFill=0;startArrow=openThin;startFill=0;" parent="1" edge="1">
          <mxGeometry width="50" height="50" relative="1" as="geometry">
            <mxPoint x="225" y="521" as="sourcePoint" />
            <mxPoint x="553" y="521" as="targetPoint" />
          </mxGeometry>
        </mxCell>
        <mxCell id="C-hkk91nc2oqcI1oIUS8-20" value="Avisa que o Produto foi editado" style="text;html=1;align=center;verticalAlign=middle;resizable=0;points=[];autosize=1;strokeColor=none;fillColor=none;" parent="1" vertex="1">
          <mxGeometry x="297" y="500.99999999999994" width="190" height="30" as="geometry" />
        </mxCell>
        <mxCell id="C-hkk91nc2oqcI1oIUS8-21" value="" style="endArrow=classic;html=1;rounded=0;" parent="1" edge="1">
          <mxGeometry width="50" height="50" relative="1" as="geometry">
            <mxPoint x="225" y="466" as="sourcePoint" />
            <mxPoint x="550" y="466" as="targetPoint" />
          </mxGeometry>
        </mxCell>
        <mxCell id="C-hkk91nc2oqcI1oIUS8-22" value="Entra com as novas informações do produto&amp;nbsp;" style="text;html=1;align=center;verticalAlign=middle;resizable=0;points=[];autosize=1;strokeColor=none;fillColor=none;" parent="1" vertex="1">
          <mxGeometry x="263" y="445" width="260" height="30" as="geometry" />
        </mxCell>
        <mxCell id="C-hkk91nc2oqcI1oIUS8-27" value="" style="endArrow=classic;html=1;rounded=0;" parent="1" edge="1">
          <mxGeometry width="50" height="50" relative="1" as="geometry">
            <mxPoint x="223.5" y="210" as="sourcePoint" />
            <mxPoint x="548.5" y="210" as="targetPoint" />
          </mxGeometry>
        </mxCell>
        <mxCell id="C-hkk91nc2oqcI1oIUS8-28" value="" style="endArrow=none;dashed=1;html=1;rounded=0;" parent="1" target="C-hkk91nc2oqcI1oIUS8-29" edge="1">
          <mxGeometry width="50" height="50" relative="1" as="geometry">
            <mxPoint x="555" y="420" as="sourcePoint" />
            <mxPoint x="555" y="172" as="targetPoint" />
          </mxGeometry>
        </mxCell>
        <mxCell id="C-hkk91nc2oqcI1oIUS8-29" value="" style="rounded=0;whiteSpace=wrap;html=1;rotation=90;" parent="1" vertex="1">
          <mxGeometry x="535" y="224" width="40" height="10" as="geometry" />
        </mxCell>
        <mxCell id="C-hkk91nc2oqcI1oIUS8-30" value="" style="endArrow=none;dashed=1;html=1;rounded=0;endFill=0;startArrow=openThin;startFill=0;" parent="1" edge="1">
          <mxGeometry width="50" height="50" relative="1" as="geometry">
            <mxPoint x="223" y="249" as="sourcePoint" />
            <mxPoint x="553" y="249" as="targetPoint" />
          </mxGeometry>
        </mxCell>
        <mxCell id="C-hkk91nc2oqcI1oIUS8-31" value="Vai para o menu de Sessão de Produtos" style="text;html=1;align=center;verticalAlign=middle;resizable=0;points=[];autosize=1;strokeColor=none;fillColor=none;" parent="1" vertex="1">
          <mxGeometry x="273" y="189" width="240" height="30" as="geometry" />
        </mxCell>
        <mxCell id="C-hkk91nc2oqcI1oIUS8-32" value="Abre o menu de Sessão de Produtos" style="text;html=1;align=center;verticalAlign=middle;resizable=0;points=[];autosize=1;strokeColor=none;fillColor=none;" parent="1" vertex="1">
          <mxGeometry x="284" y="227" width="220" height="30" as="geometry" />
        </mxCell>
        <mxCell id="C-hkk91nc2oqcI1oIUS8-33" value="" style="endArrow=classic;html=1;rounded=0;" parent="1" edge="1">
          <mxGeometry width="50" height="50" relative="1" as="geometry">
            <mxPoint x="223.5" y="280" as="sourcePoint" />
            <mxPoint x="548.5" y="280" as="targetPoint" />
          </mxGeometry>
        </mxCell>
        <mxCell id="C-hkk91nc2oqcI1oIUS8-34" value="" style="rounded=0;whiteSpace=wrap;html=1;rotation=90;" parent="1" vertex="1">
          <mxGeometry x="535" y="294" width="40" height="10" as="geometry" />
        </mxCell>
        <mxCell id="C-hkk91nc2oqcI1oIUS8-35" value="" style="endArrow=none;dashed=1;html=1;rounded=0;endFill=0;startArrow=openThin;startFill=0;" parent="1" edge="1">
          <mxGeometry width="50" height="50" relative="1" as="geometry">
            <mxPoint x="223" y="319" as="sourcePoint" />
            <mxPoint x="553" y="319" as="targetPoint" />
          </mxGeometry>
        </mxCell>
        <mxCell id="C-hkk91nc2oqcI1oIUS8-36" value="Tela pedindo ID do produto" style="text;html=1;align=center;verticalAlign=middle;resizable=0;points=[];autosize=1;strokeColor=none;fillColor=none;" parent="1" vertex="1">
          <mxGeometry x="304" y="294" width="170" height="30" as="geometry" />
        </mxCell>
        <mxCell id="C-hkk91nc2oqcI1oIUS8-37" value="Seleciona a opção de Editar ou Deltar Produto" style="text;html=1;align=center;verticalAlign=middle;resizable=0;points=[];autosize=1;strokeColor=none;fillColor=none;" parent="1" vertex="1">
          <mxGeometry x="254" y="257" width="270" height="30" as="geometry" />
        </mxCell>
        <mxCell id="C-hkk91nc2oqcI1oIUS8-43" value="" style="endArrow=none;dashed=1;html=1;rounded=0;endFill=0;startArrow=none;startFill=0;exitX=-0.002;exitY=0.496;exitDx=0;exitDy=0;exitPerimeter=0;" parent="1" edge="1">
          <mxGeometry width="50" height="50" relative="1" as="geometry">
            <mxPoint x="183.1199999999999" y="548.9200000000001" as="sourcePoint" />
            <mxPoint x="618" y="549.5" as="targetPoint" />
          </mxGeometry>
        </mxCell>
        <mxCell id="C-hkk91nc2oqcI1oIUS8-44" value="Se o usuário seleciou: Deletar produto&amp;nbsp;" style="text;html=1;align=center;verticalAlign=middle;resizable=0;points=[];autosize=1;strokeColor=none;fillColor=none;" parent="1" vertex="1">
          <mxGeometry x="215" y="545" width="230" height="30" as="geometry" />
        </mxCell>
        <mxCell id="C-hkk91nc2oqcI1oIUS8-45" value="" style="rounded=0;whiteSpace=wrap;html=1;rotation=90;" parent="1" vertex="1">
          <mxGeometry x="528.56" y="618.36" width="52.89" height="10" as="geometry" />
        </mxCell>
        <mxCell id="C-hkk91nc2oqcI1oIUS8-46" value="" style="endArrow=none;dashed=1;html=1;rounded=0;endFill=0;startArrow=openThin;startFill=0;" parent="1" edge="1">
          <mxGeometry width="50" height="50" relative="1" as="geometry">
            <mxPoint x="225" y="651" as="sourcePoint" />
            <mxPoint x="553" y="651" as="targetPoint" />
          </mxGeometry>
        </mxCell>
        <mxCell id="C-hkk91nc2oqcI1oIUS8-47" value="Avisa que o Produto foi d&lt;span style=&quot;background-color: initial;&quot;&gt;eletado&lt;/span&gt;" style="text;html=1;align=center;verticalAlign=middle;resizable=0;points=[];autosize=1;strokeColor=none;fillColor=none;" parent="1" vertex="1">
          <mxGeometry x="292" y="631" width="200" height="30" as="geometry" />
        </mxCell>
        <mxCell id="C-hkk91nc2oqcI1oIUS8-48" value="" style="endArrow=classic;html=1;rounded=0;" parent="1" edge="1">
          <mxGeometry width="50" height="50" relative="1" as="geometry">
            <mxPoint x="225" y="596" as="sourcePoint" />
            <mxPoint x="550" y="596" as="targetPoint" />
          </mxGeometry>
        </mxCell>
        <mxCell id="C-hkk91nc2oqcI1oIUS8-49" value="Pergunta se o usuário quer mesmo deletar o Produto" style="text;html=1;align=center;verticalAlign=middle;resizable=0;points=[];autosize=1;strokeColor=none;fillColor=none;" parent="1" vertex="1">
          <mxGeometry x="238" y="575" width="310" height="30" as="geometry" />
        </mxCell>
        <mxCell id="O5ap_qUZQbZyQzkIIo8U-1" value="" style="endArrow=classic;html=1;rounded=0;" edge="1" parent="1">
          <mxGeometry width="50" height="50" relative="1" as="geometry">
            <mxPoint x="223.5" y="355" as="sourcePoint" />
            <mxPoint x="548.5" y="355" as="targetPoint" />
          </mxGeometry>
        </mxCell>
        <mxCell id="O5ap_qUZQbZyQzkIIo8U-2" value="" style="rounded=0;whiteSpace=wrap;html=1;rotation=90;" vertex="1" parent="1">
          <mxGeometry x="535" y="369" width="40" height="10" as="geometry" />
        </mxCell>
        <mxCell id="O5ap_qUZQbZyQzkIIo8U-3" value="" style="endArrow=none;dashed=1;html=1;rounded=0;endFill=0;startArrow=openThin;startFill=0;" edge="1" parent="1">
          <mxGeometry width="50" height="50" relative="1" as="geometry">
            <mxPoint x="223" y="394" as="sourcePoint" />
            <mxPoint x="553" y="394" as="targetPoint" />
          </mxGeometry>
        </mxCell>
        <mxCell id="O5ap_qUZQbZyQzkIIo8U-4" value="&lt;font style=&quot;font-size: 11px;&quot;&gt;Passa para a próxima tela dependendo da escolha do usuário&lt;/font&gt;" style="text;html=1;align=center;verticalAlign=middle;resizable=0;points=[];autosize=1;strokeColor=none;fillColor=none;" vertex="1" parent="1">
          <mxGeometry x="224" y="369" width="330" height="30" as="geometry" />
        </mxCell>
        <mxCell id="O5ap_qUZQbZyQzkIIo8U-5" value="Entra com o ID" style="text;html=1;align=center;verticalAlign=middle;resizable=0;points=[];autosize=1;strokeColor=none;fillColor=none;" vertex="1" parent="1">
          <mxGeometry x="339" y="330" width="100" height="30" as="geometry" />
        </mxCell>
      </root>
    </mxGraphModel>
  </diagram>
</mxfile>
